<svg width="686" height="240" viewBox="0 0 686 240" fill="none" xmlns="http://www.w3.org/2000/svg">
<path d="M672.239 105.913C672.597 105.199 673.345 104.75 674.131 104.889C677.684 105.517 682.097 107.823 684.466 109.979C685.035 110.498 685.136 111.333 684.81 112.031C670.299 143.184 651.485 164.477 620.943 179.004C620.429 179.248 620.036 179.699 619.873 180.245L618.812 183.779C605.199 228.352 579.949 239.33 561.066 239.33C541.744 239.33 530.326 228.571 530.326 213.421C530.326 185.173 569.081 180.431 588.563 175.279C589.224 175.104 589.731 174.601 589.932 173.947L593.18 163.359C593.792 161.366 591.157 159.709 589.487 160.957C582.943 165.848 575.71 168.629 567.214 168.629C539.329 168.629 533.181 146.013 540.646 121.861L560.635 56.091C560.891 55.2485 561.668 54.6726 562.548 54.6726H590.425C591.768 54.6726 592.729 55.9691 592.339 57.2537L572.923 121.202C569.409 132.4 570.068 142.061 581.925 142.061C590.383 142.061 597.556 135.849 603.655 128.079C603.805 127.888 603.918 127.67 603.989 127.437L625.845 56.0869C626.102 55.2465 626.878 54.6726 627.757 54.6726H655.633C656.977 54.6726 657.938 55.9716 657.545 57.2568L627.807 154.619C627.271 156.375 629.169 157.833 630.692 156.807C650.412 143.531 662.125 126.117 672.239 105.913ZM558.211 221.764C568.106 221.764 577.227 212.281 583.211 195.495C583.735 194.026 582.402 192.598 580.886 192.966C564.83 196.863 547.453 201.046 547.453 212.103C547.453 217.154 551.185 221.764 558.211 221.764Z" fill="white"/>
<path d="M486.465 169.288C454.408 169.288 432.67 147.55 432.67 125.374C432.67 108.01 443.763 101.35 451.657 101.728C452.518 101.77 453.362 101.369 453.759 100.604C461.471 85.7823 470.409 64.676 476.012 48.0462C476.34 47.0722 477.348 46.4989 478.352 46.7218L501.143 51.7865C501.842 51.9419 502.404 52.4613 502.625 53.1429C511.158 79.4254 530.379 100.923 530.379 126.691C530.379 130.198 530.047 133.622 529.384 136.912C529 138.82 531.176 140.339 532.629 139.044C541.846 130.831 548.697 119.532 555.482 105.916C555.839 105.201 556.588 104.75 557.375 104.889C560.929 105.518 565.341 107.825 567.709 109.981C568.278 110.499 568.38 111.33 568.056 112.028C552.923 144.617 530.956 169.288 486.465 169.288ZM497.663 126.252C497.663 112.305 488.623 96.7314 482.356 80.0225C481.701 78.2778 479.177 78.2048 478.455 79.9223C474.548 89.2083 470.247 98.4083 465.789 107.048C465.414 107.773 465.523 108.648 466.011 109.303C468.17 112.204 469.558 115.761 469.558 119.665C469.558 125.72 466.404 131.032 461.802 134.239C461.081 134.741 460.681 135.624 460.959 136.458C463.202 143.214 469.729 148.209 478.56 148.209C489.758 148.209 497.663 139.865 497.663 126.252Z" fill="white"/>
<path d="M379.468 169.288C347.411 169.288 325.674 147.55 325.674 125.374C325.674 108.01 336.766 101.35 344.661 101.728C345.521 101.77 346.365 101.369 346.762 100.604C354.474 85.7823 363.412 64.676 369.015 48.0462C369.344 47.0722 370.352 46.4989 371.355 46.7218L394.146 51.7865C394.845 51.9419 395.407 52.4613 395.628 53.1429C404.162 79.4254 423.382 100.923 423.382 126.691C423.382 130.198 423.05 133.622 422.388 136.912C422.003 138.82 424.179 140.339 425.632 139.044C434.85 130.831 441.701 119.532 448.485 105.916C448.842 105.201 449.591 104.75 450.378 104.889C453.932 105.518 458.344 107.825 460.712 109.981C461.281 110.499 461.383 111.33 461.059 112.028C445.926 144.617 423.96 169.288 379.468 169.288ZM390.666 126.252C390.666 112.305 381.626 96.7314 375.359 80.0225C374.704 78.2778 372.18 78.2048 371.458 79.9223C367.551 89.2083 363.25 98.4083 358.792 107.048C358.417 107.773 358.526 108.648 359.014 109.303C361.173 112.204 362.561 115.761 362.561 119.665C362.561 125.72 359.408 131.032 354.805 134.239C354.084 134.741 353.685 135.624 353.962 136.458C356.206 143.214 362.732 148.209 371.563 148.209C382.761 148.209 390.666 139.865 390.666 126.252Z" fill="white"/>
<path d="M341.622 105.92C341.983 105.206 342.734 104.75 343.522 104.889C347.075 105.519 351.487 107.825 353.854 109.981C354.423 110.499 354.525 111.33 354.2 112.027C338.999 144.617 314.112 169.288 276.782 169.288C244.286 169.288 223.646 150.844 223.646 120.543C223.646 87.3884 248.677 52.6965 286.443 52.6965C310.815 52.6965 325.965 67.1881 325.965 84.0949C325.965 102.858 307.96 126.705 261.128 126.298C259.831 126.287 258.82 127.479 259.196 128.72C262.73 140.381 272.499 147.111 286.882 147.111C307.653 147.111 328.21 132.4 341.622 105.92ZM286.004 79.9231C272.789 79.9231 261.578 92.9479 258.497 109.235C258.269 110.441 259.23 111.525 260.456 111.473C285.811 110.408 296.982 98.9618 296.982 89.5841C296.982 84.534 293.908 79.9231 286.004 79.9231Z" fill="white"/>
<path d="M229.046 12.9546C230.392 12.9546 231.354 14.2565 230.958 15.5425L195.964 129.326C193.11 138.768 194.427 146.233 202.991 146.233C215.091 146.233 226.766 130.285 238.852 105.923C239.208 105.206 239.96 104.75 240.748 104.889C244.301 105.519 248.711 107.825 251.079 109.98C251.648 110.498 251.749 111.333 251.425 112.031C235.928 145.448 216.743 168.629 190.475 168.629C164.786 168.629 158.199 147.331 166.103 121.861L199.262 14.3651C199.521 13.5266 200.296 12.9546 201.173 12.9546H229.046Z" fill="white"/>
<path d="M68.1658 26.5503C68.6121 25.086 67.3075 23.693 65.8299 24.093C39.6829 31.172 31.1788 49.6264 31.1788 65.6511C31.1788 73.9646 33.6131 81.9036 36.9254 88.0847C37.3924 88.9564 37.1977 90.044 36.429 90.6662L16.1703 107.066C15.3499 107.73 14.1509 107.645 13.4654 106.842C4.23111 96.0326 0 81.9759 0 68.725C0 32.4962 31.6179 0 91.9993 0C135.694 0 172.361 16.9068 172.361 50.2813C172.361 67.2609 162.831 81.9532 146.08 90.0963C144.573 90.829 144.427 93.0274 145.818 93.9613C160.057 103.518 166.653 117.99 166.653 132.839C166.653 161.383 143.598 186.194 105.613 186.194C84.2327 186.194 67.3134 178.76 55.4814 167.234C55.1014 166.864 54.5942 166.653 54.0638 166.653H28.1703C26.8269 166.653 25.8655 165.355 26.2571 164.07L68.1658 26.5503ZM138.767 50.0617C138.767 35.2707 126.839 24.8746 104.411 21.9381C103.457 21.8131 102.554 22.4042 102.272 23.3244L86.9171 73.4849C86.5781 74.5921 87.2477 75.757 88.3789 76.0041C94.0701 77.2473 99.0747 77.9469 104.954 77.9469C133.717 77.9469 138.767 58.1857 138.767 50.0617ZM114.818 97.0446C114.542 96.9023 114.233 96.8302 113.923 96.8286C103.724 96.7759 94.0706 95.0174 83.3708 91.9069C82.3131 91.5995 81.1993 92.1922 80.8768 93.2454L64.448 146.899C64.241 147.575 64.4019 148.313 64.8999 148.815C71.7952 155.762 83.0436 159.627 95.5124 159.627C119.885 159.627 133.278 142.5 133.278 125.813C133.278 115.174 127.266 103.461 114.818 97.0446Z" fill="white"/>
</svg>
